<?xml version="1.0" encoding="utf-8"?>
<!-- Generator: Adobe Illustrator 27.5.0, SVG Export Plug-In . SVG Version: 6.00 Build 0)  -->
<svg version="1.1" xmlns="http://www.w3.org/2000/svg" xmlns:xlink="http://www.w3.org/1999/xlink" x="0px" y="0px"
	 viewBox="0 0 500 500" style="enable-background:new 0 0 500 500;" xml:space="preserve">
<g id="BACKGROUND">
	<rect style="fill:#FFFFFF;" width="500" height="500"/>
</g>
<g id="OBJECTS">
	<g>
		<g>
			<g>
				<linearGradient id="SVGID_1_" gradientUnits="userSpaceOnUse" x1="175.449" y1="187.3754" x2="125.7674" y2="306.519">
					<stop  offset="0" style="stop-color:#9F1EFB"/>
					<stop  offset="1" style="stop-color:#7A17BF"/>
				</linearGradient>
				<path style="fill:url(#SVGID_1_);" d="M252.485,195.434c0,5.534-8.266,9.37-17.085,8.667l-10.074-0.787l-8.805,25.269
					c-0.869,2.498-3.215,4.182-5.865,4.223l-3.533,0.028l-0.345-30.057c-46.618,10.971-79.118,57.396-81.63,90.972
					c-2.76,36.916,34.846,36.916,34.846,36.916c-32.431,30.361-90.738,2.415-52.097-64.31
					c25.834-44.617,66.573-61.232,89.109-66.877h0.014c0.014,0,0.027,0,0.041-0.014c0.373-0.097,0.621-0.483,0.538-0.869
					c-0.083-0.4-0.455-0.649-0.856-0.58h-0.041c-0.014,0-0.027,0-0.041,0.014c-16.064,2.898-31.755,8.142-46.673,15.029
					c14.573-7.563,30.085-13.58,46.204-17.278c0.028,0,0.055-0.014,0.069-0.014c0.331-0.069,0.566-0.386,0.524-0.731
					c-0.041-0.373-0.373-0.635-0.745-0.593c-0.028,0-0.055,0.014-0.069,0.014c-48.577,7.314-104.469,34.929-121.913,70.838
					c-19.679,40.532,8.653,68.754,8.653,68.754C55.457,316.38,38.552,262.697,99.963,222.22
					c44.341-29.229,79.135-31.781,103.075-33.273l3.588,0.069l-0.359-31.865l3.533-0.041c2.65-0.028,5.023,1.601,5.962,4.085
					l9.84,26.331l9.798-0.773c0.69-0.055,1.38-0.083,2.056-0.083C245.461,186.671,252.485,190.328,252.485,195.434z"/>
				
					<linearGradient id="SVGID_00000154401604000515967620000001473595261207123090_" gradientUnits="userSpaceOnUse" x1="214.1131" y1="174.643" x2="216.5197" y2="191.0307">
					<stop  offset="0" style="stop-color:#9F1EFB"/>
					<stop  offset="0.9997" style="stop-color:#541085"/>
				</linearGradient>
				<path style="fill:url(#SVGID_00000154401604000515967620000001473595261207123090_);" d="M225.602,187.526l-9.84-26.331
					c-0.938-2.484-3.312-4.113-5.962-4.085l-3.533,0.041l0.359,31.865C206.627,189.017,215.312,187.913,225.602,187.526z"/>
				
					<linearGradient id="SVGID_00000169543661821342696420000011651470893183422343_" gradientUnits="userSpaceOnUse" x1="131.5267" y1="317.8846" x2="177.0681" y2="217.1416">
					<stop  offset="0" style="stop-color:#E974FC"/>
					<stop  offset="0.9997" style="stop-color:#E974FC;stop-opacity:0"/>
				</linearGradient>
				<path style="fill:url(#SVGID_00000169543661821342696420000011651470893183422343_);" d="M125.149,293.748
					c2.512-33.576,35.012-80.001,81.63-90.972c0,0-62.962,7.107-91.483,75.41c-11.06,26.486-3.257,49.373,22.469,63.978
					c7.792-1.481,15.559-5.254,22.231-11.499C159.995,330.664,122.389,330.664,125.149,293.748z"/>
				
					<linearGradient id="SVGID_00000023966288265941225350000006546212900533379250_" gradientUnits="userSpaceOnUse" x1="224.3424" y1="203.172" x2="250.3907" y2="193.5117">
					<stop  offset="0" style="stop-color:#E974FC"/>
					<stop  offset="0.9997" style="stop-color:#E974FC;stop-opacity:0"/>
				</linearGradient>
				<path style="fill:url(#SVGID_00000023966288265941225350000006546212900533379250_);" d="M252.485,195.434
					c0,5.534-8.266,9.37-17.085,8.667l-10.074-0.787c-5.41-0.055-13.966-0.359-17.223-0.483c-0.069,0-0.138-0.014-0.193-0.014
					c-0.359-0.041-0.731-0.055-1.132-0.041c10.695-0.593,45.555-3.478,38.42-14.863
					C249.491,189.403,252.485,192.108,252.485,195.434z"/>
				
					<linearGradient id="SVGID_00000044893235640089799670000015300661833786899850_" gradientUnits="userSpaceOnUse" x1="216.0524" y1="219.5549" x2="216.0524" y2="201.1167">
					<stop  offset="0" style="stop-color:#9F1EFB"/>
					<stop  offset="0.9997" style="stop-color:#541085"/>
				</linearGradient>
				<path style="fill:url(#SVGID_00000044893235640089799670000015300661833786899850_);" d="M206.779,202.776l0.345,30.057
					l3.533-0.028c2.65-0.041,4.996-1.725,5.865-4.223l8.805-25.269C218.532,203.24,206.779,202.776,206.779,202.776z"/>
				
					<linearGradient id="SVGID_00000038394507467713318430000003156498037460121241_" gradientUnits="userSpaceOnUse" x1="64.7847" y1="305.7275" x2="171.3929" y2="208.7797">
					<stop  offset="0" style="stop-color:#E974FC"/>
					<stop  offset="0.9997" style="stop-color:#E974FC;stop-opacity:0"/>
				</linearGradient>
				<path style="fill:url(#SVGID_00000038394507467713318430000003156498037460121241_);" d="M82.713,334.045
					c0,0-28.332-28.222-8.653-68.754c17.444-35.909,73.335-63.523,121.913-70.838c0.014,0,0.041-0.014,0.069-0.014
					c0,0-57.179,4.579-93.146,32.721c-35.967,28.142-38.814,48.646-38.296,73.142c0.259,12.266,8.953,24.359,17.57,33.376
					C82.351,333.801,82.531,333.927,82.713,334.045z"/>
			</g>
			<g>
				
					<linearGradient id="SVGID_00000137102025412352080180000012590796699854320001_" gradientUnits="userSpaceOnUse" x1="154.1942" y1="249.6447" x2="153.2742" y2="304.3863">
					<stop  offset="0" style="stop-color:#F9532C"/>
					<stop  offset="0.9997" style="stop-color:#FF9948"/>
				</linearGradient>
				<path style="fill:url(#SVGID_00000137102025412352080180000012590796699854320001_);" d="M167.125,230.266
					c0,0-34.386,26.566-35.076,63.482c-0.69,36.916,32.431,35.191,42.436,22.081c0,0-28.591-1.432-26.911-34.156
					C149.255,248.949,167.125,230.266,167.125,230.266z"/>
				<path style="opacity:0.35;fill:#FF9948;" d="M165.675,231.949c-7.366,8.796-39.729,50.666-22.868,88.639
					c10.407,7.106,25.479,3.365,31.679-4.759c0,0-28.591-1.432-26.911-34.156C148.963,254.639,161.392,237.2,165.675,231.949z"/>
			</g>
			<g>
				
					<linearGradient id="SVGID_00000173156205265064722300000008427555707558261936_" gradientUnits="userSpaceOnUse" x1="130.4651" y1="202.8074" x2="70.6633" y2="259.3891">
					<stop  offset="0" style="stop-color:#F9532C"/>
					<stop  offset="0.9997" style="stop-color:#FF9948"/>
				</linearGradient>
				<path style="fill:url(#SVGID_00000173156205265064722300000008427555707558261936_);" d="M53.663,284.433
					c0,0-2.691-72.715,123.928-97.769c0,0-73.367,6.612-102.813,40.842C47.177,259.592,53.663,284.433,53.663,284.433z"/>
				<path style="opacity:0.35;fill:#FF9948;" d="M53.663,284.433c0,0-2.06-55.81,82.571-86.488
					c-24.918,6.325-43.81,15.804-58.029,25.901c-1.196,1.185-2.344,2.402-3.427,3.661C47.177,259.592,53.663,284.433,53.663,284.433
					z"/>
			</g>
		</g>
		<g>
			<text transform="matrix(1 0 0 1 184.9863 294.7666)"><tspan x="0" y="0" style="fill:#7A17BF; font-family:'Barlow-SemiBold'; font-size:56.6889px;">TRAVEL</tspan><tspan x="179.645" y="0" style="fill:#FF9948; font-family:'Barlow-SemiBold'; font-size:56.6889px;">GO</tspan></text>
			<text transform="matrix(1 0 0 1 236.6079 315.9189)" style="fill:#F9532C; font-family:'Barlow-Medium'; font-size:14.3695px;">SLOGAN COMPANY HERE</text>
		</g>
	</g>
</g>
</svg>
